<svg width="306" height="59" viewBox="0 0 306 59" fill="none" xmlns="http://www.w3.org/2000/svg">
<g clip-path="url(#clip0_1245_6253)">
<path d="M48.4175 21.997C48.4175 21.997 60.1461 15.0446 67.5927 24.8688C67.5927 24.8688 69.5237 27.1021 68.0394 29.2402C66.5787 31.3423 63.3182 30.8957 61.6951 28.6672C60.2307 26.6573 56.7022 24.1058 48.4175 21.997Z" fill="#8870FF"/>
<path d="M48.4079 21.997C48.4079 21.997 55.5409 10.4489 46.3695 3.65523C46.3695 3.65523 43.3428 0.934505 40.6087 1.90286C38.0657 2.8028 37.9992 6.34839 40.3389 7.68927C42.9028 9.15939 46.4151 12.8314 48.4079 21.997Z" fill="#8870FF"/>
<path d="M67.3374 25.4732C67.3374 25.4732 67.4011 25.555 67.4847 25.668C67.7289 25.4495 67.9656 25.2138 68.1803 24.9382C70.1608 22.4009 68.5738 20.4376 68.5738 20.4376C62.6952 11.594 49.0127 21.2045 49.0127 21.2045C49.6713 21.2501 50.2871 21.309 50.8829 21.3717C54.7953 19.9444 62.1164 18.5854 67.3374 25.4732Z" fill="#8870FF"/>
<path d="M46.3705 3.65521C53.4455 8.89519 50.8188 16.9614 49.248 20.3768C49.2508 20.4537 49.2565 20.5231 49.2594 20.6001C49.2594 20.6001 59.0238 7.07156 50.7371 1.74985C50.7371 1.74985 48.0962 -0.509019 45.0362 1.04663C44.5107 1.31366 44.0574 1.65957 43.6792 2.05015C45.2101 2.61463 46.3705 3.65521 46.3705 3.65521Z" fill="#A4E869"/>
<path d="M63.3978 6.14882C59.9321 3.90325 55.5331 7.29394 55.5331 7.29394C54.8033 8.16822 54.1409 9.10902 53.5299 10.0755C52.9236 14.4934 50.0451 19.2687 48.614 21.4164C48.5294 21.7148 48.4581 21.9761 48.4087 22.1643C50.067 21.0505 54.8974 18.0371 59.6451 17.2569C60.8235 16.4758 61.9467 15.6177 62.9246 14.6864C68.1655 9.69631 63.3978 6.14882 63.3978 6.14882Z" fill="#659C35"/>
<path d="M48.4175 21.997C48.4175 21.997 60.1461 15.0446 67.5927 24.8688C67.5927 24.8688 69.5237 27.1021 68.0394 29.2402C66.5787 31.3423 63.3182 30.8957 61.6951 28.6672C60.2307 26.6573 56.7022 24.1058 48.4175 21.997Z" fill="#A4E869"/>
<path d="M49.0643 20.945C48.7972 21.4648 48.6157 21.7594 48.6157 21.7594C48.6157 21.7594 49.0605 21.4971 49.8245 21.1484C49.5765 21.08 49.3266 21.0125 49.0643 20.945Z" fill="#F2681C"/>
<path d="M55.1777 27.2037C55.5778 26.09 55.5531 24.9857 55.3031 23.9451C53.5175 23.1953 51.3252 22.4579 48.6158 21.7689C47.9592 18.7498 47.1372 16.337 46.2391 14.3927C45.0009 13.9622 43.6467 13.8092 42.2764 14.3015C37.9762 15.8466 19.0671 43.0529 15.531 52.5388C15.1984 53.4312 15.8988 54.1306 16.7902 53.798C26.2761 50.2619 53.6325 31.5029 55.1777 27.2037Z" fill="#ED8F20"/>
<path d="M23.2736 44.8509C22.6331 44.5449 22.0107 44.1714 21.4234 43.7409C20.9996 43.4292 20.4056 43.5224 20.0958 43.9453C19.786 44.3681 19.8772 44.963 20.3001 45.2728C20.9824 45.7736 21.7075 46.2089 22.4545 46.5652C22.5866 46.628 22.7263 46.6584 22.864 46.6584C23.2185 46.6584 23.5587 46.4588 23.7222 46.1177C23.9474 45.6444 23.7469 45.0761 23.2736 44.8509Z" fill="#DD7017"/>
<path d="M52.6613 26.7638C50.7169 26.0225 48.9123 24.6902 47.2996 22.8039C46.9585 22.4047 46.3588 22.3582 45.9597 22.6993C45.5606 23.0405 45.514 23.6401 45.8552 24.0393C47.6769 26.1698 49.7391 27.6846 51.9846 28.5408C52.0958 28.5827 52.2099 28.6036 52.3229 28.6036C52.7059 28.6036 53.0661 28.3698 53.2115 27.9906C53.3977 27.5003 53.1516 26.951 52.6613 26.7638Z" fill="#DD7017"/>
<path d="M37.0392 19.2792C37.4089 19.3751 37.7054 19.6859 37.75 20.0907C37.9201 21.6416 38.7212 23.6515 40.1305 24.6446C40.5591 24.9468 40.6618 25.5398 40.3586 25.9693C40.1742 26.2316 39.8797 26.3713 39.5813 26.3713C39.3921 26.3713 39.2011 26.3152 39.0339 26.1974C37.1323 24.8565 36.1868 22.4465 35.9131 20.6409" fill="#DD7017"/>
<path d="M39.0339 26.1974C39.2002 26.3152 39.3912 26.3713 39.5813 26.3713C39.8797 26.3713 40.1742 26.2316 40.3586 25.9693C40.6608 25.5398 40.5591 24.9477 40.1305 24.6446C38.7222 23.6506 37.9201 21.6407 37.75 20.0907C37.7054 19.6868 37.4089 19.3751 37.0392 19.2792C36.6733 19.7134 36.2989 20.1639 35.9131 20.64C36.1868 22.4465 37.1323 24.8565 39.0339 26.1974Z" fill="#DD7017"/>
<path d="M44.2865 36.9929C42.4904 36.7021 40.1346 35.7556 38.8146 33.8844C38.5124 33.4558 38.6151 32.8628 39.0437 32.5597C39.4713 32.2575 40.0652 32.3601 40.3684 32.7887C41.3615 34.1961 43.3714 34.9991 44.9222 35.1692C45.3385 35.2148 45.6502 35.5256 45.7357 35.9124" fill="#DD7017"/>
<path d="M44.9234 35.1597C43.3716 34.9896 41.3617 34.1875 40.3696 32.7792C40.0674 32.3506 39.4725 32.247 39.0448 32.5501C38.6153 32.8523 38.5127 33.4453 38.8158 33.8749C40.1358 35.746 42.4916 36.6925 44.2877 36.9833C44.7809 36.6194 45.2646 36.2601 45.7369 35.9038C45.6513 35.5161 45.3387 35.2053 44.9234 35.1597Z" fill="#DD7017"/>
<path d="M29.4697 29.2212C29.8489 29.3106 30.1539 29.6242 30.1995 30.0347C30.306 31.0087 30.803 32.2669 31.6715 32.8808C32.1001 33.183 32.2028 33.776 31.8996 34.2056C31.7143 34.4678 31.4207 34.6075 31.1223 34.6075C30.9332 34.6075 30.7421 34.5515 30.5749 34.4336C29.3129 33.5432 28.6363 32.0009 28.3901 30.7607" fill="#DD7017"/>
<path d="M30.5754 34.4336C30.7417 34.5515 30.9327 34.6075 31.1227 34.6075C31.4211 34.6075 31.7148 34.4678 31.9001 34.2056C32.2023 33.777 32.1006 33.184 31.672 32.8808C30.8025 32.2669 30.3064 31.0097 30.2 30.0347C30.1553 29.6232 29.8503 29.3096 29.4702 29.2212C29.11 29.7296 28.7508 30.2428 28.3906 30.7607C28.6368 32.0009 29.3134 33.5432 30.5754 34.4336Z" fill="#DD7017"/>
<path d="M32.575 45.0314C31.2854 44.8632 29.4922 44.1876 28.503 42.784C28.2008 42.3544 28.3024 41.7624 28.731 41.4592C29.1606 41.1551 29.7536 41.2597 30.0557 41.6873C30.6696 42.5568 31.9269 43.0529 32.901 43.1593C33.4227 43.2163 33.799 43.6858 33.742 44.2075C33.7391 44.237 33.723 44.2617 33.7173 44.2902" fill="#DD7017"/>
<path d="M32.9009 43.1603C31.9268 43.0539 30.6686 42.5569 30.0557 41.6883C29.7535 41.2597 29.1614 41.1561 28.7309 41.4602C28.3024 41.7624 28.1997 42.3554 28.5029 42.785C29.4931 44.1886 31.2854 44.8642 32.5749 45.0324C32.9551 44.7882 33.3361 44.5402 33.7172 44.2921C33.7229 44.2636 33.7391 44.2389 33.7419 44.2095C33.7999 43.6877 33.4226 43.2173 32.9009 43.1603Z" fill="#DD7017"/>
<path d="M282.082 19.0206C280.967 19.0206 280.094 19.3769 279.462 20.0894C278.83 20.7905 278.468 21.7905 278.376 23.0892H285.754C285.731 21.7905 285.392 20.7905 284.737 20.0894C284.082 19.3769 283.197 19.0206 282.082 19.0206ZM282.824 35.2607C279.72 35.2607 277.295 34.4045 275.548 32.6919C273.801 30.9794 272.928 28.5543 272.928 25.4166C272.928 22.187 273.732 19.6929 275.341 17.9344C276.962 16.1644 279.197 15.2795 282.048 15.2795C284.772 15.2795 286.892 16.0553 288.409 17.6069C289.926 19.1585 290.685 21.302 290.685 24.0374V26.589H278.255C278.312 28.0831 278.755 29.2497 279.582 30.0887C280.41 30.9277 281.571 31.3472 283.065 31.3472C284.226 31.3472 285.323 31.2265 286.358 30.9852C287.392 30.7438 288.473 30.3588 289.599 29.8301V33.8987C288.679 34.3585 287.697 34.6975 286.651 34.9159C285.605 35.1458 284.329 35.2607 282.824 35.2607Z" fill="white"/>
<path d="M271.409 29.1922C271.409 31.1691 270.72 32.6747 269.34 33.7091C267.973 34.7435 265.921 35.2607 263.186 35.2607C261.783 35.2607 260.588 35.163 259.6 34.9676C258.611 34.7837 257.686 34.5079 256.824 34.1401V29.7956C257.801 30.2553 258.899 30.6404 260.117 30.9507C261.347 31.261 262.427 31.4162 263.358 31.4162C265.266 31.4162 266.22 30.8645 266.22 29.7611C266.22 29.3474 266.093 29.0141 265.841 28.7612C265.588 28.4969 265.151 28.2038 264.53 27.882C263.91 27.5487 263.082 27.1636 262.048 26.7269C260.565 26.1062 259.473 25.5316 258.772 25.0029C258.083 24.4742 257.577 23.8708 257.255 23.1927C256.945 22.5031 256.79 21.6583 256.79 20.6584C256.79 18.9458 257.45 17.6241 258.772 16.6931C260.105 15.7507 261.99 15.2795 264.427 15.2795C266.749 15.2795 269.007 15.7852 271.202 16.7966L269.616 20.5894C268.651 20.1756 267.748 19.8366 266.909 19.5722C266.07 19.3079 265.214 19.1757 264.341 19.1757C262.789 19.1757 262.013 19.5952 262.013 20.4342C262.013 20.9055 262.26 21.3135 262.755 21.6583C263.26 22.0031 264.358 22.5145 266.047 23.1927C267.553 23.8018 268.656 24.3707 269.358 24.8994C270.059 25.4281 270.576 26.0373 270.909 26.7269C271.242 27.4165 271.409 28.2383 271.409 29.1922Z" fill="white"/>
<path d="M249.823 34.9159L249.116 32.4506H248.84C248.277 33.3471 247.478 34.0424 246.444 34.5366C245.41 35.0194 244.231 35.2607 242.91 35.2607C240.646 35.2607 238.939 34.6573 237.789 33.4505C236.64 32.2322 236.065 30.4852 236.065 28.2095V15.6415H241.324V26.8993C241.324 28.29 241.571 29.3359 242.065 30.037C242.559 30.7266 243.346 31.0714 244.427 31.0714C245.898 31.0714 246.961 30.5829 247.616 29.606C248.271 28.6175 248.599 26.9855 248.599 24.7098V15.6415H253.857V34.9159H249.823Z" fill="white"/>
<path d="M219.91 25.2442C219.91 27.1521 220.221 28.5945 220.841 29.5715C221.474 30.5484 222.497 31.0369 223.91 31.0369C225.312 31.0369 226.318 30.5542 226.927 29.5887C227.548 28.6118 227.858 27.1636 227.858 25.2442C227.858 23.3363 227.548 21.9054 226.927 20.9514C226.307 19.9975 225.289 19.5205 223.876 19.5205C222.474 19.5205 221.462 19.9975 220.841 20.9514C220.221 21.8939 219.91 23.3248 219.91 25.2442ZM233.237 25.2442C233.237 28.3819 232.41 30.8358 230.755 32.6057C229.099 34.3757 226.795 35.2607 223.841 35.2607C221.991 35.2607 220.359 34.8584 218.945 34.0539C217.531 33.2379 216.445 32.0713 215.687 30.5542C214.928 29.037 214.549 27.2671 214.549 25.2442C214.549 22.095 215.371 19.6469 217.014 17.8999C218.658 16.153 220.968 15.2795 223.945 15.2795C225.795 15.2795 227.427 15.6817 228.841 16.4863C230.255 17.2908 231.341 18.4459 232.099 19.9515C232.858 21.4572 233.237 23.2214 233.237 25.2442Z" fill="white"/>
<path d="M211.168 34.9159H205.841V24.0374H195.859V34.9159H190.515V9.71091H195.859V19.5895H205.841V9.71091H211.168V34.9159Z" fill="white"/>
<path d="M177.465 29.1922C177.465 31.1691 176.776 32.6747 175.396 33.7091C174.029 34.7435 171.977 35.2607 169.242 35.2607C167.84 35.2607 166.644 35.163 165.656 34.9676C164.667 34.7837 163.742 34.5079 162.88 34.1401V29.7956C163.857 30.2553 164.955 30.6404 166.173 30.9507C167.403 31.261 168.483 31.4162 169.414 31.4162C171.322 31.4162 172.276 30.8645 172.276 29.7611C172.276 29.3474 172.15 29.0141 171.897 28.7612C171.644 28.4969 171.207 28.2038 170.587 27.882C169.966 27.5487 169.138 27.1636 168.104 26.7269C166.621 26.1062 165.529 25.5316 164.828 25.0029C164.139 24.4742 163.633 23.8708 163.311 23.1927C163.001 22.5031 162.846 21.6583 162.846 20.6584C162.846 18.9458 163.507 17.6241 164.828 16.6931C166.162 15.7507 168.046 15.2795 170.483 15.2795C172.805 15.2795 175.063 15.7852 177.258 16.7966L175.672 20.5894C174.707 20.1756 173.805 19.8366 172.966 19.5722C172.127 19.3079 171.27 19.1757 170.397 19.1757C168.845 19.1757 168.069 19.5952 168.069 20.4342C168.069 20.9055 168.317 21.3135 168.811 21.6583C169.316 22.0031 170.414 22.5145 172.104 23.1927C173.609 23.8018 174.713 24.3707 175.414 24.8994C176.115 25.4281 176.632 26.0373 176.965 26.7269C177.299 27.4165 177.465 28.2383 177.465 29.1922Z" fill="white"/>
<path d="M162.976 13.521C162.252 13.0153 161.189 12.1992 159.787 11.0729C158.385 9.93503 157.293 8.98683 156.511 8.22826V7.86622H162.407C163.131 9.02705 164.482 10.7568 166.459 13.0555V13.521H162.976Z" fill="white"/>
<path d="M153.395 19.5895H148.844V34.9159H143.586V19.5895H140.689V17.0552L143.586 15.6415V14.2278C143.586 12.0326 144.126 10.4292 145.206 9.41783C146.287 8.40641 148.016 7.9007 150.396 7.9007C152.212 7.9007 153.826 8.17079 155.24 8.71098L153.895 12.5728C152.838 12.2395 151.861 12.0728 150.965 12.0728C150.217 12.0728 149.677 12.2969 149.344 12.7452C149.011 13.1819 148.844 13.7451 148.844 14.4347V15.6415H153.395V19.5895Z" fill="white"/>
<path d="M131.275 19.0206C130.16 19.0206 129.287 19.3769 128.655 20.0894C128.022 20.7905 127.66 21.7905 127.568 23.0892H134.947C134.924 21.7905 134.585 20.7905 133.93 20.0894C133.275 19.3769 132.39 19.0206 131.275 19.0206ZM132.016 35.2607C128.913 35.2607 126.488 34.4045 124.741 32.6919C122.994 30.9794 122.121 28.5543 122.121 25.4166C122.121 22.187 122.925 19.6929 124.534 17.9344C126.155 16.1644 128.39 15.2795 131.241 15.2795C133.965 15.2795 136.085 16.0553 137.602 17.6069C139.119 19.1585 139.878 21.302 139.878 24.0374V26.589H127.448C127.505 28.0831 127.948 29.2497 128.775 30.0887C129.603 30.9277 130.764 31.3472 132.258 31.3472C133.419 31.3472 134.516 31.2265 135.551 30.9852C136.585 30.7438 137.665 30.3588 138.792 29.8301V33.8987C137.872 34.3585 136.89 34.6975 135.844 34.9159C134.798 35.1458 133.522 35.2607 132.016 35.2607Z" fill="white"/>
<path d="M119.292 34.9159H114.034V23.6581C114.034 20.8767 112.999 19.486 110.93 19.486C109.459 19.486 108.396 19.986 107.741 20.9859C107.086 21.9859 106.758 23.6064 106.758 25.8476V34.9159H101.5V8.09034H106.758V13.5555C106.758 13.9807 106.718 14.9806 106.638 16.5552L106.517 18.1068H106.793C107.965 16.2219 109.827 15.2795 112.378 15.2795C114.643 15.2795 116.361 15.8886 117.533 17.1069C118.706 18.3252 119.292 20.0722 119.292 22.3479V34.9159Z" fill="white"/>
<path d="M91.5166 13.7968C89.5053 13.7968 87.9479 14.5554 86.8446 16.0725C85.7412 17.5781 85.1895 19.6814 85.1895 22.3824C85.1895 28.0026 87.2986 30.8128 91.5166 30.8128C93.2866 30.8128 95.4301 30.3703 97.9472 29.4853V33.9677C95.8784 34.8297 93.5682 35.2607 91.0167 35.2607C87.3503 35.2607 84.5459 34.1516 82.6035 31.9334C80.6611 29.7037 79.6899 26.5085 79.6899 22.3479C79.6899 19.7274 80.1669 17.4345 81.1209 15.4691C82.0748 13.4922 83.4425 11.9809 85.224 10.935C87.017 9.87757 89.1145 9.34887 91.5166 9.34887C93.9647 9.34887 96.4243 9.94078 98.8954 11.1246L97.1714 15.4691C96.2289 15.0209 95.2807 14.6301 94.3268 14.2968C93.3728 13.9635 92.4361 13.7968 91.5166 13.7968Z" fill="white"/>
<path d="M85.9516 42.2519V52.1854H86.917V56.2282H85.7555V53.2791H80.6794V56.2282H79.5178V52.1854H80.1816C80.4631 51.3557 80.7045 50.5436 80.9056 49.7491C81.1118 48.9496 81.2802 48.1476 81.411 47.3431C81.5468 46.5385 81.6498 45.7164 81.7202 44.8767C81.7906 44.0369 81.8334 43.162 81.8485 42.2519H85.9516ZM84.7523 43.3229H82.9723C82.9421 44.1375 82.8868 44.932 82.8064 45.7063C82.7309 46.4807 82.6278 47.2375 82.4971 47.9766C82.3714 48.7108 82.2206 49.4298 82.0446 50.1338C81.8686 50.8328 81.6674 51.5166 81.4412 52.1854H84.7523V43.3229ZM93.3584 49.1307C93.3584 49.7843 93.3031 50.3752 93.1924 50.9032C93.0818 51.4311 92.9134 51.8837 92.6871 52.2608C92.4608 52.6379 92.1742 52.9271 91.8272 53.1282C91.4803 53.3293 91.0705 53.4299 90.5978 53.4299C90.1452 53.4299 89.748 53.3293 89.4061 53.1282C89.0641 52.9271 88.78 52.6405 88.5538 52.2684C88.3275 51.8912 88.1565 51.4387 88.0409 50.9107C87.9252 50.3777 87.8674 49.7843 87.8674 49.1307C87.8674 48.2155 87.9655 47.4411 88.1616 46.8076C88.3577 46.169 88.6594 45.6837 89.0667 45.3518C89.474 45.0149 89.9919 44.8465 90.6204 44.8465C91.2087 44.8465 91.7066 45.0099 92.1138 45.3368C92.5211 45.6586 92.8304 46.1388 93.0416 46.7774C93.2528 47.411 93.3584 48.1954 93.3584 49.1307ZM89.0516 49.1307C89.0516 49.8497 89.1069 50.4531 89.2175 50.9409C89.3281 51.4286 89.4991 51.7957 89.7304 52.0421C89.9667 52.2885 90.2659 52.4117 90.628 52.4117C90.985 52.4117 91.2766 52.291 91.5029 52.0496C91.7342 51.8083 91.9052 51.4462 92.0158 50.9635C92.1264 50.4757 92.1817 49.8648 92.1817 49.1307C92.1817 48.4116 92.1264 47.8107 92.0158 47.328C91.9052 46.8402 91.7342 46.4757 91.5029 46.2343C91.2766 45.9879 90.9825 45.8647 90.6204 45.8647C90.0673 45.8647 89.6676 46.1388 89.4212 46.6869C89.1748 47.2299 89.0516 48.0445 89.0516 49.1307ZM101.64 44.9973V53.2791H100.524V48.7083C100.524 48.4719 100.531 48.1702 100.546 47.8032C100.567 47.4311 100.592 47.0037 100.622 46.5209H100.561L98.8342 53.2791H97.8009L96.0963 46.5209H96.0284C96.0536 46.9433 96.0737 47.3506 96.0888 47.7428C96.1089 48.13 96.1189 48.4418 96.1189 48.6781V53.2791H95.0253V44.9973H96.6771L98.3289 51.6423L100.003 44.9973H101.64ZM105.871 44.8465C106.636 44.8465 107.181 45.0904 107.508 45.5781C107.835 46.0659 107.998 46.7724 107.998 47.6976V53.2791H107.116L106.942 52.1024H106.912C106.782 52.384 106.626 52.6254 106.445 52.8265C106.264 53.0226 106.057 53.1735 105.826 53.2791C105.595 53.3796 105.328 53.4299 105.027 53.4299C104.599 53.4299 104.25 53.3168 103.978 53.0905C103.707 52.8642 103.506 52.5675 103.375 52.2005C103.244 51.8284 103.179 51.4286 103.179 51.0012C103.179 50.1816 103.415 49.5455 103.888 49.0929C104.36 48.6404 105.032 48.394 105.902 48.3538L106.844 48.2934V47.7277C106.844 47.064 106.754 46.5788 106.573 46.272C106.392 45.9653 106.1 45.8119 105.698 45.8119C105.467 45.8119 105.223 45.8522 104.966 45.9326C104.715 46.0131 104.441 46.1413 104.144 46.3173L103.775 45.4424C104.086 45.2412 104.418 45.0929 104.77 44.9973C105.127 44.8968 105.494 44.8465 105.871 44.8465ZM106.86 49.1457L106.09 49.1985C105.507 49.2337 105.072 49.3997 104.785 49.6963C104.504 49.988 104.363 50.4129 104.363 50.971C104.363 51.489 104.456 51.8711 104.642 52.1175C104.828 52.3639 105.084 52.4871 105.411 52.4871C105.869 52.4871 106.223 52.2658 106.475 51.8233C106.731 51.3808 106.86 50.7699 106.86 49.9905V49.1457ZM117.464 47.0338C117.464 47.5216 117.366 47.9213 117.17 48.2331C116.974 48.5449 116.67 48.756 116.258 48.8667V48.927C116.715 49.0075 117.067 49.2161 117.313 49.553C117.56 49.8899 117.683 50.3199 117.683 50.8428C117.683 51.3557 117.588 51.7957 117.396 52.1628C117.21 52.5248 116.934 52.8014 116.567 52.9924C116.2 53.1835 115.742 53.2791 115.194 53.2791H112.871V44.9973H115.073C115.601 44.9973 116.041 45.0753 116.393 45.2312C116.75 45.387 117.017 45.6158 117.193 45.9175C117.374 46.2192 117.464 46.5913 117.464 47.0338ZM116.514 50.7523C116.514 50.2595 116.401 49.9101 116.175 49.7039C115.948 49.4927 115.616 49.3871 115.179 49.3871H114.032V52.3438H115.141C115.614 52.3438 115.961 52.2156 116.182 51.9591C116.403 51.7027 116.514 51.3004 116.514 50.7523ZM116.295 47.1319C116.295 46.7447 116.19 46.448 115.978 46.2419C115.767 46.0357 115.445 45.9326 115.013 45.9326H114.032V48.4745H115.149C115.551 48.4745 115.843 48.3663 116.024 48.1501C116.205 47.9289 116.295 47.5895 116.295 47.1319ZM122.714 44.9973H123.989L121.605 48.9044L124.177 53.2791H122.865L120.459 48.9798V53.2791H119.297V44.9973H120.459V48.9119L122.714 44.9973ZM124.32 44.9973H125.52L126.689 49.8397C126.734 50.0508 126.777 50.257 126.817 50.4581C126.862 50.6593 126.903 50.8604 126.938 51.0615C126.978 51.2577 127.011 51.4563 127.036 51.6574H127.096C127.136 51.3658 127.187 51.0716 127.247 50.7749C127.307 50.4732 127.378 50.159 127.458 49.8321L128.597 44.9973H129.789L127.33 54.6065C127.184 55.1597 127.013 55.6122 126.817 55.9642C126.621 56.3162 126.39 56.5751 126.123 56.7411C125.862 56.907 125.55 56.99 125.188 56.99C125.067 56.99 124.947 56.9774 124.826 56.9523C124.705 56.9271 124.577 56.897 124.441 56.8618V55.8284C124.537 55.8636 124.635 55.8913 124.735 55.9114C124.841 55.9315 124.941 55.9416 125.037 55.9416C125.228 55.9416 125.392 55.8913 125.527 55.7907C125.663 55.6952 125.784 55.5343 125.889 55.308C125.995 55.0817 126.098 54.7725 126.199 54.3803L126.493 53.2187L124.32 44.9973ZM133.258 53.4299C132.65 53.4299 132.142 53.2715 131.735 52.9547C131.333 52.6379 131.031 52.1653 130.83 51.5367C130.629 50.9082 130.528 50.1288 130.528 49.1985C130.528 48.2884 130.629 47.509 130.83 46.8604C131.036 46.2117 131.345 45.7139 131.757 45.3669C132.17 45.02 132.685 44.8465 133.304 44.8465C133.615 44.8465 133.894 44.8792 134.141 44.9445C134.392 45.0099 134.626 45.1029 134.842 45.2236L134.473 46.1815C134.287 46.081 134.101 46.0055 133.915 45.9552C133.734 45.905 133.555 45.8798 133.379 45.8798C133.017 45.8798 132.713 46.0055 132.466 46.2569C132.22 46.5033 132.031 46.8704 131.901 47.3582C131.775 47.8459 131.712 48.4543 131.712 49.1835C131.712 49.8925 131.773 50.4858 131.893 50.9635C132.019 51.4412 132.205 51.8032 132.451 52.0496C132.703 52.291 133.015 52.4117 133.387 52.4117C133.608 52.4117 133.832 52.3815 134.058 52.3212C134.289 52.2558 134.521 52.1628 134.752 52.0421V53.0226C134.541 53.1533 134.294 53.2539 134.013 53.3243C133.736 53.3947 133.485 53.4299 133.258 53.4299ZM137.339 44.9973V48.4745H140.024V44.9973H141.186V53.2791H140.024V49.4776H137.339V53.2791H136.177V44.9973H137.339ZM145.485 44.8616C146.048 44.8616 146.511 45.025 146.873 45.3518C147.24 45.6787 147.511 46.1187 147.687 46.6718C147.868 47.2249 147.959 47.8409 147.959 48.5197V49.3418H144.014C144.024 50.3727 144.183 51.147 144.489 51.6649C144.801 52.1829 145.269 52.4418 145.892 52.4418C146.189 52.4418 146.48 52.3966 146.767 52.3061C147.054 52.2156 147.35 52.0697 147.657 51.8686V52.9095C147.37 53.0855 147.071 53.2162 146.76 53.3017C146.448 53.3872 146.116 53.4299 145.764 53.4299C145.075 53.4299 144.517 53.2464 144.089 52.8793C143.662 52.5072 143.35 52.0018 143.154 51.3632C142.963 50.7196 142.868 49.993 142.868 49.1835C142.868 48.2582 142.966 47.4738 143.162 46.8302C143.358 46.1866 143.65 45.6988 144.037 45.3669C144.429 45.03 144.912 44.8616 145.485 44.8616ZM145.485 45.8119C145.047 45.8119 144.705 46.0256 144.459 46.4531C144.213 46.8754 144.069 47.5291 144.029 48.4141H146.873C146.873 47.9465 146.822 47.5166 146.722 47.1243C146.626 46.7271 146.475 46.4103 146.269 46.174C146.068 45.9326 145.807 45.8119 145.485 45.8119ZM151.881 44.8616C152.444 44.8616 152.907 45.025 153.269 45.3518C153.636 45.6787 153.907 46.1187 154.083 46.6718C154.264 47.2249 154.355 47.8409 154.355 48.5197V49.3418H150.41C150.42 50.3727 150.579 51.147 150.885 51.6649C151.197 52.1829 151.665 52.4418 152.288 52.4418C152.585 52.4418 152.877 52.3966 153.163 52.3061C153.45 52.2156 153.746 52.0697 154.053 51.8686V52.9095C153.767 53.0855 153.467 53.2162 153.156 53.3017C152.844 53.3872 152.512 53.4299 152.16 53.4299C151.471 53.4299 150.913 53.2464 150.486 52.8793C150.058 52.5072 149.746 52.0018 149.55 51.3632C149.359 50.7196 149.264 49.993 149.264 49.1835C149.264 48.2582 149.362 47.4738 149.558 46.8302C149.754 46.1866 150.046 45.6988 150.433 45.3669C150.825 45.03 151.308 44.8616 151.881 44.8616ZM151.881 45.8119C151.443 45.8119 151.102 46.0256 150.855 46.4531C150.609 46.8754 150.465 47.5291 150.425 48.4141H153.269C153.269 47.9465 153.218 47.5166 153.118 47.1243C153.022 46.7271 152.872 46.4103 152.665 46.174C152.464 45.9326 152.203 45.8119 151.881 45.8119ZM157.206 50.2243H156.331L156.059 42.2519H157.462L157.206 50.2243ZM155.992 52.472C155.992 52.1653 156.057 51.9315 156.188 51.7705C156.318 51.6096 156.515 51.5292 156.776 51.5292C157.017 51.5292 157.208 51.6046 157.349 51.7555C157.49 51.9013 157.56 52.1401 157.56 52.472C157.56 52.7938 157.485 53.0301 157.334 53.181C157.188 53.3319 157.002 53.4073 156.776 53.4073C156.52 53.4073 156.323 53.3293 156.188 53.1735C156.057 53.0125 155.992 52.7787 155.992 52.472Z" fill="white"/>
</g>
<defs>
<clipPath id="clip0_1245_6253">
<rect width="306" height="58" fill="white" transform="translate(0 0.5)"/>
</clipPath>
</defs>
</svg>
